<?xml version="1.0" encoding="UTF-8"?>
<svg width="36px" height="36px" viewBox="0 0 36 36" version="1.1" xmlns="http://www.w3.org/2000/svg" xmlns:xlink="http://www.w3.org/1999/xlink">
    <!-- Generator: Sketch 50.2 (55047) - http://www.bohemiancoding.com/sketch -->
    <title>facebook-button-icon</title>
    <desc>Created with Sketch.</desc>
    <defs></defs>
    <g id="Page-1" stroke="none" stroke-width="1" fill="none" fill-rule="evenodd">
        <path d="M34.0137931,0 L1.9862069,0 C0.889255118,-6.71689242e-17 1.34337848e-16,0.889255118 0,1.9862069 L0,34.0137931 C1.34337848e-16,35.1107449 0.889255118,36 1.9862069,36 L19.2413793,36 L19.2413793,22.077931 L14.5551724,22.077931 L14.5551724,16.6282759 L19.2413793,16.6282759 L19.2413793,12.6186207 C19.2413793,7.96965517 22.0841379,5.43724138 26.2303448,5.43724138 C27.627563,5.43419431 29.0239745,5.50463644 30.4137931,5.64827586 L30.4137931,10.5082759 L27.5586207,10.5082759 C25.2993103,10.5082759 24.8586207,11.5758621 24.8586207,13.1524138 L24.8586207,16.622069 L30.2586207,16.622069 L29.5572414,22.0717241 L24.8275862,22.0717241 L24.8275862,36 L34.0137931,36 C35.1107449,36 36,35.1107449 36,34.0137931 L36,1.9862069 C36,0.889255118 35.1107449,6.71689242e-17 34.0137931,0 Z" id="facebook-button-icon" fill="#FFFFFF" fill-rule="nonzero"></path>
    </g>
</svg>